<svg xmlns="http://www.w3.org/2000/svg" xmlns:xlink="http://www.w3.org/1999/xlink" viewBox="0 0 198.13 197.58"><defs><style>.cls-1,.cls-10,.cls-11,.cls-12,.cls-13,.cls-14,.cls-15,.cls-16,.cls-17,.cls-18,.cls-2,.cls-3,.cls-4,.cls-5,.cls-6,.cls-7,.cls-8,.cls-9{fill-rule:evenodd;}.cls-1{fill:url(#Linear_Gradient_1);}.cls-2{fill:url(#Linear_Gradient_2);}.cls-3{fill:url(#Linear_Gradient_2-2);}.cls-4{fill:url(#Linear_Gradient_3);}.cls-5{fill:url(#Linear_Gradient_4);}.cls-6{fill:url(#Linear_Gradient_5);}.cls-7{fill:url(#Linear_Gradient_6);}.cls-8{fill:url(#Linear_Gradient_7);}.cls-9{fill:#fff;}.cls-10{fill:url(#Linear_Gradient_8);}.cls-11{fill:url(#Linear_Gradient_9);}.cls-12{fill:url(#Linear_Gradient_10);}.cls-13{fill:url(#Linear_Gradient_11);}.cls-14{fill:#ab3628;}.cls-15{fill:url(#Radial_Gradient_1);}.cls-16{fill:url(#Radial_Gradient_2);}.cls-17{fill:url(#Linear_Gradient_12);}.cls-18{fill:url(#Linear_Gradient_13);}</style><linearGradient id="Linear_Gradient_1" x1="174.07" y1="215.54" x2="132.27" y2="141.74" gradientUnits="userSpaceOnUse"><stop offset="0" stop-color="#f1926b"/><stop offset="0.41" stop-color="#db4c34"/><stop offset="0.99" stop-color="#a72126"/><stop offset="1" stop-color="#a72126"/></linearGradient><linearGradient id="Linear_Gradient_2" x1="194.89" y1="153.56" x2="141.03" y2="117.41" gradientUnits="userSpaceOnUse"><stop offset="0" stop-color="#9a3729"/><stop offset="0.99" stop-color="#a2372a"/><stop offset="1" stop-color="#a2372a"/></linearGradient><linearGradient id="Linear_Gradient_2-2" x1="151.79" y1="217.78" x2="97.93" y2="181.63" xlink:href="#Linear_Gradient_2"/><linearGradient id="Linear_Gradient_3" x1="38.7" y1="127.39" x2="47.05" y2="181.66" gradientUnits="userSpaceOnUse"><stop offset="0" stop-color="#fff"/><stop offset="0.23" stop-color="#e38e69"/><stop offset="0.46" stop-color="#d95d36"/><stop offset="0.99" stop-color="#a60003"/><stop offset="1" stop-color="#a60003"/></linearGradient><linearGradient id="Linear_Gradient_4" x1="96.13" y1="76.71" x2="99.21" y2="132.1" gradientUnits="userSpaceOnUse"><stop offset="0" stop-color="#fff"/><stop offset="0.23" stop-color="#e18d65"/><stop offset="0.56" stop-color="#c23d28"/><stop offset="0.99" stop-color="#b22b23"/><stop offset="1" stop-color="#b22b23"/></linearGradient><linearGradient id="Linear_Gradient_5" x1="147.1" y1="25.52" x2="156.32" y2="65.22" gradientUnits="userSpaceOnUse"><stop offset="0" stop-color="#fff"/><stop offset="0.18" stop-color="#e08159"/><stop offset="0.4" stop-color="#c94729"/><stop offset="0.99" stop-color="#b22b23"/><stop offset="1" stop-color="#b22b23"/></linearGradient><linearGradient id="Linear_Gradient_6" x1="118.98" y1="11.54" x2="158.67" y2="-8.31" gradientUnits="userSpaceOnUse"><stop offset="0" stop-color="#fff"/><stop offset="0.54" stop-color="#c8422a"/><stop offset="0.99" stop-color="#c12121"/><stop offset="1" stop-color="#c12121"/></linearGradient><linearGradient id="Linear_Gradient_7" x1="3.9" y1="113.56" x2="7.17" y2="146.27" gradientUnits="userSpaceOnUse"><stop offset="0" stop-color="#fff"/><stop offset="0.31" stop-color="#d9613a"/><stop offset="0.99" stop-color="#c23d25"/><stop offset="1" stop-color="#c23d25"/></linearGradient><linearGradient id="Linear_Gradient_8" x1="-18.56" y1="155.11" x2="135.01" y2="-2.81" gradientUnits="userSpaceOnUse"><stop offset="0" stop-color="#bd0012"/><stop offset="0.07" stop-color="#fff"/><stop offset="0.17" stop-color="#fff"/><stop offset="0.27" stop-color="#c95233"/><stop offset="0.33" stop-color="#962e29"/><stop offset="0.46" stop-color="#af3b24"/><stop offset="0.72" stop-color="#b93521"/><stop offset="0.99" stop-color="#dc4719"/><stop offset="1" stop-color="#dc4719"/></linearGradient><linearGradient id="Linear_Gradient_9" x1="99.08" y1="171.03" x2="52.82" y2="159.62" gradientUnits="userSpaceOnUse"><stop offset="0" stop-color="#9e2d28"/><stop offset="0.54" stop-color="#a72c26"/><stop offset="0.99" stop-color="#b22a2d"/><stop offset="1" stop-color="#b22a2d"/></linearGradient><linearGradient id="Linear_Gradient_10" x1="178.53" y1="115.51" x2="137.43" y2="78.68" gradientUnits="userSpaceOnUse"><stop offset="0" stop-color="#94362e"/><stop offset="0.99" stop-color="#ab2c25"/><stop offset="1" stop-color="#ab2c25"/></linearGradient><linearGradient id="Linear_Gradient_11" x1="193.62" y1="47.94" x2="173.15" y2="26.05" gradientUnits="userSpaceOnUse"><stop offset="0" stop-color="#90382e"/><stop offset="0.99" stop-color="#ab362b"/><stop offset="1" stop-color="#ab362b"/></linearGradient><radialGradient id="Radial_Gradient_1" cx="143.83" cy="79.39" r="50.36" gradientUnits="userSpaceOnUse"><stop offset="0" stop-color="#b22b23"/><stop offset="0.99" stop-color="#94312b"/><stop offset="1" stop-color="#94312b"/></radialGradient><radialGradient id="Radial_Gradient_2" cx="74.09" cy="145.75" r="66.95" gradientUnits="userSpaceOnUse"><stop offset="0" stop-color="#af2b24"/><stop offset="0.99" stop-color="#96322c"/><stop offset="1" stop-color="#96322c"/></radialGradient><linearGradient id="Linear_Gradient_12" x1="26.67" y1="197.34" x2="9.99" y2="140.74" gradientUnits="userSpaceOnUse"><stop offset="0" stop-color="#9f4530"/><stop offset="0.43" stop-color="#ab312b"/><stop offset="0.99" stop-color="#b9302a"/><stop offset="1" stop-color="#b9302a"/></linearGradient><linearGradient id="Linear_Gradient_13" x1="154.64" y1="9.8" x2="192.04" y2="26.31" gradientUnits="userSpaceOnUse"><stop offset="0" stop-color="#b93021"/><stop offset="0.44" stop-color="#a2322a"/><stop offset="0.99" stop-color="#904131"/><stop offset="1" stop-color="#904131"/></linearGradient></defs><g id="レイヤー_2" data-name="レイヤー 2"><g id="Layer_1" data-name="Layer 1"><polygon class="cls-1" points="40.38 197.58 186.85 187.64 198.13 39.95 153.5 130.41 40.38 197.58"/><polygon class="cls-2" points="140.21 145.93 187.09 187.54 174.5 100.65 140.21 145.93"/><polygon class="cls-3" points="40.87 197.39 187.26 187.54 95.03 180.3 40.87 197.39"/><polygon class="cls-4" points="13.34 132.77 41 197.41 64.04 121.93 13.34 132.77"/><polygon class="cls-5" points="58.33 120.01 140.2 146.18 119 63.14 58.33 120.01"/><polygon class="cls-6" points="120 69.1 193.32 64.31 135.97 17.47 120 69.1"/><polygon class="cls-7" points="111.49 0.52 166.5 0.77 132.77 19.41 111.49 0.52"/><polygon class="cls-8" points="2.7 101.62 0 158.09 14.13 132.32 2.7 101.62"/><path class="cls-9" d="M1.94,100.65l11.5,32.62,50-11.21,57.05-53,16.1-51.14L111.21,0,68.11,16.13C54.53,28.76,28.18,53.75,27.23,54.22S9.83,85.81,1.94,100.65Z"/><path class="cls-10" d="M42.32,42.05c29.43-29.18,67.37-46.42,81.93-31.73s-.88,50.39-30.31,79.56S27,137.24,12.49,122.55,12.89,71.22,42.32,42.05Z"/><path class="cls-11" d="M41,197.38l22.86-75.72,75.92,24.39C112.33,171.79,81.8,193.55,41,197.38Z"/><path class="cls-12" d="M120.56,68.89l19.49,77.2C163,122,183.56,96.06,193.64,64Z"/><path class="cls-13" d="M193.44,64.39C201.24,40.85,203,7.08,166.26.81L136.08,17.48Z"/><path class="cls-14" d="M0,157.75c1.08,38.85,29.11,39.43,41.05,39.77L13.47,133.11Z"/><path class="cls-15" d="M120.67,69c17.62,10.83,53.13,32.58,53.85,33,1.12.63,15.31-23.93,18.53-37.81Z"/><path class="cls-16" d="M63.83,121.66l30.56,59c18.07-9.8,32.22-21.74,45.18-34.53Z"/><path class="cls-17" d="M13.35,133.19,9,184.75c8.17,11.16,19.41,12.13,31.2,11.26C31.69,174.78,14.65,132.33,13.35,133.19Z"/><path class="cls-18" d="M135.9,17.61l60.71,8.52C193.37,12.4,183.42,3.54,166.46.77Z"/></g></g></svg>